<mxfile host="app.diagrams.net" agent="Mozilla/5.0 (Windows NT 10.0; Win64; x64) AppleWebKit/537.36 (KHTML, like Gecko) Chrome/131.0.0.0 Safari/537.36 Edg/131.0.0.0" version="25.0.3">
  <diagram name="第 1 页" id="17-SALPNsmWPgyNgZcLt">
    <mxGraphModel dx="869" dy="718" grid="1" gridSize="10" guides="1" tooltips="1" connect="1" arrows="1" fold="1" page="1" pageScale="1" pageWidth="827" pageHeight="1169" math="0" shadow="0">
      <root>
        <mxCell id="0" />
        <mxCell id="1" parent="0" />
        <mxCell id="XlSUuOUZiyemOy3n9_np-1" value="" style="rounded=0;whiteSpace=wrap;html=1;fillColor=#d5e8d4;strokeColor=#82b366;" vertex="1" parent="1">
          <mxGeometry x="170" y="110" width="660" height="130" as="geometry" />
        </mxCell>
        <mxCell id="XlSUuOUZiyemOy3n9_np-2" value="用户交互层" style="rounded=0;whiteSpace=wrap;html=1;fillColor=#f8cecc;strokeColor=#b85450;" vertex="1" parent="1">
          <mxGeometry x="40" y="40" width="120" height="60" as="geometry" />
        </mxCell>
        <mxCell id="XlSUuOUZiyemOy3n9_np-3" value="功能模块层" style="rounded=0;whiteSpace=wrap;html=1;fillColor=#d5e8d4;strokeColor=#82b366;" vertex="1" parent="1">
          <mxGeometry x="40" y="110" width="120" height="130" as="geometry" />
        </mxCell>
        <mxCell id="XlSUuOUZiyemOy3n9_np-4" value="" style="rounded=0;whiteSpace=wrap;html=1;fillColor=#f8cecc;strokeColor=#b85450;" vertex="1" parent="1">
          <mxGeometry x="170" y="40" width="660" height="60" as="geometry" />
        </mxCell>
        <mxCell id="XlSUuOUZiyemOy3n9_np-5" value="实时飞行监控界面" style="rounded=0;whiteSpace=wrap;html=1;fillColor=#ffe6cc;strokeColor=#d79b00;" vertex="1" parent="1">
          <mxGeometry x="204.5" y="50" width="175.5" height="40" as="geometry" />
        </mxCell>
        <mxCell id="XlSUuOUZiyemOy3n9_np-7" value="" style="rounded=0;whiteSpace=wrap;html=1;fillColor=#dae8fc;strokeColor=#6c8ebf;" vertex="1" parent="1">
          <mxGeometry x="177.5" y="120" width="160" height="110" as="geometry" />
        </mxCell>
        <mxCell id="XlSUuOUZiyemOy3n9_np-8" value="飞行路径动态展示" style="rounded=0;whiteSpace=wrap;html=1;fillColor=#F19C99;strokeColor=#d79b00;" vertex="1" parent="1">
          <mxGeometry x="197.5" y="150" width="120" height="30" as="geometry" />
        </mxCell>
        <mxCell id="XlSUuOUZiyemOy3n9_np-9" value="任务状态实时更新 " style="rounded=0;whiteSpace=wrap;html=1;fillColor=#F19C99;strokeColor=#d79b00;" vertex="1" parent="1">
          <mxGeometry x="197.5" y="190" width="120" height="30" as="geometry" />
        </mxCell>
        <mxCell id="XlSUuOUZiyemOy3n9_np-10" value="&lt;b&gt;&lt;font style=&quot;font-size: 14px;&quot;&gt;实时可视化模块&lt;/font&gt;&lt;/b&gt;" style="text;html=1;align=center;verticalAlign=middle;resizable=0;points=[];autosize=1;strokeColor=none;fillColor=none;" vertex="1" parent="1">
          <mxGeometry x="199.5" y="120" width="120" height="30" as="geometry" />
        </mxCell>
        <mxCell id="XlSUuOUZiyemOy3n9_np-11" value="" style="rounded=0;whiteSpace=wrap;html=1;fillColor=#dae8fc;strokeColor=#6c8ebf;" vertex="1" parent="1">
          <mxGeometry x="340.5" y="120" width="160" height="110" as="geometry" />
        </mxCell>
        <mxCell id="XlSUuOUZiyemOy3n9_np-12" value="任务数据展示" style="rounded=0;whiteSpace=wrap;html=1;fillColor=#F19C99;strokeColor=#d79b00;" vertex="1" parent="1">
          <mxGeometry x="360.5" y="150" width="120" height="30" as="geometry" />
        </mxCell>
        <mxCell id="XlSUuOUZiyemOy3n9_np-13" value="性能趋势分析 " style="rounded=0;whiteSpace=wrap;html=1;fillColor=#F19C99;strokeColor=#d79b00;" vertex="1" parent="1">
          <mxGeometry x="360.5" y="190" width="120" height="30" as="geometry" />
        </mxCell>
        <mxCell id="XlSUuOUZiyemOy3n9_np-14" value="&lt;b&gt;&lt;font style=&quot;font-size: 14px;&quot;&gt;历史数据分析模块&lt;/font&gt;&lt;/b&gt;" style="text;html=1;align=center;verticalAlign=middle;resizable=0;points=[];autosize=1;strokeColor=none;fillColor=none;" vertex="1" parent="1">
          <mxGeometry x="350.5" y="120" width="140" height="30" as="geometry" />
        </mxCell>
        <mxCell id="XlSUuOUZiyemOy3n9_np-15" value="" style="rounded=0;whiteSpace=wrap;html=1;fillColor=#dae8fc;strokeColor=#6c8ebf;" vertex="1" parent="1">
          <mxGeometry x="503.5" y="120" width="160" height="110" as="geometry" />
        </mxCell>
        <mxCell id="XlSUuOUZiyemOy3n9_np-16" value="可视化组件配置" style="rounded=0;whiteSpace=wrap;html=1;fillColor=#F19C99;strokeColor=#d79b00;" vertex="1" parent="1">
          <mxGeometry x="523.5" y="150" width="120" height="30" as="geometry" />
        </mxCell>
        <mxCell id="XlSUuOUZiyemOy3n9_np-17" value="支持报告导出 " style="rounded=0;whiteSpace=wrap;html=1;fillColor=#F19C99;strokeColor=#d79b00;" vertex="1" parent="1">
          <mxGeometry x="523.5" y="190" width="120" height="30" as="geometry" />
        </mxCell>
        <mxCell id="XlSUuOUZiyemOy3n9_np-18" value="&lt;b&gt;&lt;font style=&quot;font-size: 14px;&quot;&gt;自定义报告生成模块&lt;/font&gt;&lt;/b&gt;" style="text;html=1;align=center;verticalAlign=middle;resizable=0;points=[];autosize=1;strokeColor=none;fillColor=none;" vertex="1" parent="1">
          <mxGeometry x="510.5" y="120" width="150" height="30" as="geometry" />
        </mxCell>
        <mxCell id="XlSUuOUZiyemOy3n9_np-23" value="技术支持层" style="rounded=0;whiteSpace=wrap;html=1;fillColor=#e1d5e7;strokeColor=#9673a6;" vertex="1" parent="1">
          <mxGeometry x="40" y="250" width="120" height="130" as="geometry" />
        </mxCell>
        <mxCell id="XlSUuOUZiyemOy3n9_np-24" value="" style="rounded=0;whiteSpace=wrap;html=1;fillColor=#e1d5e7;strokeColor=#9673a6;" vertex="1" parent="1">
          <mxGeometry x="174.5" y="250" width="655.5" height="130" as="geometry" />
        </mxCell>
        <mxCell id="XlSUuOUZiyemOy3n9_np-25" value="" style="rounded=0;whiteSpace=wrap;html=1;fillColor=#f5f5f5;fontColor=#333333;strokeColor=#666666;" vertex="1" parent="1">
          <mxGeometry x="187" y="260" width="303" height="50" as="geometry" />
        </mxCell>
        <mxCell id="XlSUuOUZiyemOy3n9_np-26" value="&lt;b&gt;&lt;font style=&quot;font-size: 14px;&quot;&gt;数据存储&lt;/font&gt;&lt;/b&gt;" style="text;html=1;align=center;verticalAlign=middle;resizable=0;points=[];autosize=1;strokeColor=none;fillColor=none;" vertex="1" parent="1">
          <mxGeometry x="182" y="270" width="80" height="30" as="geometry" />
        </mxCell>
        <mxCell id="XlSUuOUZiyemOy3n9_np-27" value="MongoDB" style="rounded=0;whiteSpace=wrap;html=1;fillColor=#A9C4EB;" vertex="1" parent="1">
          <mxGeometry x="266" y="270" width="88" height="30" as="geometry" />
        </mxCell>
        <mxCell id="XlSUuOUZiyemOy3n9_np-28" value="Redis" style="rounded=0;whiteSpace=wrap;html=1;fillColor=#A9C4EB;" vertex="1" parent="1">
          <mxGeometry x="376.5" y="270" width="88" height="30" as="geometry" />
        </mxCell>
        <mxCell id="XlSUuOUZiyemOy3n9_np-29" value="" style="rounded=0;whiteSpace=wrap;html=1;fillColor=#f5f5f5;fontColor=#333333;strokeColor=#666666;" vertex="1" parent="1">
          <mxGeometry x="187" y="320" width="303" height="50" as="geometry" />
        </mxCell>
        <mxCell id="XlSUuOUZiyemOy3n9_np-30" value="&lt;b&gt;&lt;font style=&quot;font-size: 14px;&quot;&gt;分析工具&lt;/font&gt;&lt;/b&gt;" style="text;html=1;align=center;verticalAlign=middle;resizable=0;points=[];autosize=1;strokeColor=none;fillColor=none;" vertex="1" parent="1">
          <mxGeometry x="182" y="330" width="80" height="30" as="geometry" />
        </mxCell>
        <mxCell id="XlSUuOUZiyemOy3n9_np-31" value="回归分析" style="rounded=0;whiteSpace=wrap;html=1;fillColor=#A9C4EB;" vertex="1" parent="1">
          <mxGeometry x="266" y="330" width="88" height="30" as="geometry" />
        </mxCell>
        <mxCell id="XlSUuOUZiyemOy3n9_np-32" value="聚类算法" style="rounded=0;whiteSpace=wrap;html=1;fillColor=#A9C4EB;" vertex="1" parent="1">
          <mxGeometry x="376.5" y="330" width="88" height="30" as="geometry" />
        </mxCell>
        <mxCell id="XlSUuOUZiyemOy3n9_np-33" value="" style="rounded=0;whiteSpace=wrap;html=1;fillColor=#f5f5f5;fontColor=#333333;strokeColor=#666666;" vertex="1" parent="1">
          <mxGeometry x="512.5" y="260" width="303" height="50" as="geometry" />
        </mxCell>
        <mxCell id="XlSUuOUZiyemOy3n9_np-34" value="&lt;b&gt;&lt;font style=&quot;font-size: 14px;&quot;&gt;可视化&lt;/font&gt;&lt;/b&gt;" style="text;html=1;align=center;verticalAlign=middle;resizable=0;points=[];autosize=1;strokeColor=none;fillColor=none;" vertex="1" parent="1">
          <mxGeometry x="512.5" y="270" width="70" height="30" as="geometry" />
        </mxCell>
        <mxCell id="XlSUuOUZiyemOy3n9_np-35" value="Grafana" style="rounded=0;whiteSpace=wrap;html=1;fillColor=#A9C4EB;" vertex="1" parent="1">
          <mxGeometry x="591.5" y="270" width="88" height="30" as="geometry" />
        </mxCell>
        <mxCell id="XlSUuOUZiyemOy3n9_np-36" value="Google Maps API" style="rounded=0;whiteSpace=wrap;html=1;fillColor=#A9C4EB;" vertex="1" parent="1">
          <mxGeometry x="702" y="270" width="88" height="30" as="geometry" />
        </mxCell>
        <mxCell id="XlSUuOUZiyemOy3n9_np-37" value="" style="rounded=0;whiteSpace=wrap;html=1;fillColor=#f5f5f5;fontColor=#333333;strokeColor=#666666;" vertex="1" parent="1">
          <mxGeometry x="512.5" y="320" width="303" height="50" as="geometry" />
        </mxCell>
        <mxCell id="XlSUuOUZiyemOy3n9_np-38" value="&lt;b&gt;&lt;font style=&quot;font-size: 14px;&quot;&gt;监控与日志&lt;/font&gt;&lt;/b&gt;" style="text;html=1;align=center;verticalAlign=middle;resizable=0;points=[];autosize=1;strokeColor=none;fillColor=none;" vertex="1" parent="1">
          <mxGeometry x="508.75" y="330" width="90" height="30" as="geometry" />
        </mxCell>
        <mxCell id="XlSUuOUZiyemOy3n9_np-39" value="Prometheus" style="rounded=0;whiteSpace=wrap;html=1;fillColor=#A9C4EB;" vertex="1" parent="1">
          <mxGeometry x="591.5" y="330" width="88" height="30" as="geometry" />
        </mxCell>
        <mxCell id="XlSUuOUZiyemOy3n9_np-40" value="Kibana" style="rounded=0;whiteSpace=wrap;html=1;fillColor=#A9C4EB;" vertex="1" parent="1">
          <mxGeometry x="702" y="330" width="88" height="30" as="geometry" />
        </mxCell>
        <mxCell id="XlSUuOUZiyemOy3n9_np-41" value="实时飞行监控界面" style="rounded=0;whiteSpace=wrap;html=1;fillColor=#ffe6cc;strokeColor=#d79b00;" vertex="1" parent="1">
          <mxGeometry x="407" y="50" width="175.5" height="40" as="geometry" />
        </mxCell>
        <mxCell id="XlSUuOUZiyemOy3n9_np-42" value="实时飞行监控界面" style="rounded=0;whiteSpace=wrap;html=1;fillColor=#ffe6cc;strokeColor=#d79b00;" vertex="1" parent="1">
          <mxGeometry x="600" y="50" width="175.5" height="40" as="geometry" />
        </mxCell>
      </root>
    </mxGraphModel>
  </diagram>
</mxfile>
